<svg width="59.179688" height="17.531250" viewBox="0 0 59.1797 17.5312" fill="none" xmlns="http://www.w3.org/2000/svg" xmlns:xlink="http://www.w3.org/1999/xlink">
	<desc>
			Created with Pixso.
	</desc>
	<defs/>
	<path id="LOGO" d="M25.37 13.57Q26.26 11.67 26.26 9.15L26.26 8.39Q26.26 5.88 25.35 3.96Q24.66 2.51 23.55 1.57Q23.19 1.27 22.78 1.02Q22.44 0.81 22.07 0.64Q20.68 0 18.99 0Q17.3 0 15.91 0.64Q15.54 0.81 15.2 1.02Q14.8 1.27 14.44 1.57Q13.32 2.51 12.63 3.96Q11.73 5.88 11.73 8.4L11.73 9.24Q11.74 11.7 12.65 13.59Q13.32 14.98 14.38 15.89Q14.78 16.23 15.23 16.51Q15.6 16.73 16 16.91Q17.37 17.53 19.01 17.53Q20.74 17.53 22.14 16.86Q22.49 16.7 22.82 16.5Q23.29 16.2 23.69 15.84Q24.73 14.93 25.37 13.57ZM39.63 16.9Q41.36 16.27 42.31 15.14L42.31 8.33L35.6 8.33L35.6 10.92L38.8 10.92L38.8 13.86Q37.95 14.7 35.97 14.7Q34.65 14.7 33.75 14.08Q33.32 13.78 32.98 13.33Q31.96 11.96 31.96 9.28L31.96 8.19Q31.98 5.53 32.91 4.18Q33.29 3.64 33.79 3.32Q34.56 2.83 35.64 2.83Q37.05 2.83 37.85 3.51Q38.66 4.19 38.89 5.66L42.31 5.66Q42.04 3.25 40.7 1.84Q40.51 1.63 40.28 1.44Q38.57 0 35.54 0Q33.49 0 31.93 0.87Q31.83 0.93 31.74 0.99Q31.3 1.25 30.91 1.59Q29.88 2.48 29.25 3.84Q28.39 5.71 28.39 8.27L28.39 9.43Q28.41 11.91 29.32 13.75Q29.94 15.01 30.91 15.85Q31.37 16.25 31.9 16.56Q31.93 16.58 31.97 16.6Q33.61 17.53 35.78 17.53Q37.89 17.53 39.63 16.9ZM58.28 13.57Q59.17 11.67 59.17 9.15L59.17 8.39Q59.17 5.88 58.27 3.96Q57.58 2.51 56.46 1.57Q56.1 1.27 55.7 1.02Q55.36 0.81 54.99 0.64Q53.6 0 51.91 0Q50.22 0 48.83 0.64Q48.46 0.81 48.12 1.02Q47.71 1.27 47.35 1.57Q46.24 2.51 45.55 3.96Q44.64 5.88 44.64 8.4L44.64 9.24Q44.66 11.7 45.57 13.59Q46.24 14.98 47.3 15.89Q47.7 16.23 48.15 16.51Q48.52 16.73 48.91 16.91Q50.29 17.53 51.93 17.53Q53.65 17.53 55.06 16.86Q55.41 16.7 55.74 16.5Q56.2 16.2 56.61 15.84Q57.64 14.93 58.28 13.57ZM10.98 14.47L3.51 14.47L3.51 0.23L0 0.23L0 17.29L10.98 17.29L10.98 14.47ZM21.73 4.3Q22.69 5.69 22.69 8.37L22.69 9.21Q22.68 11.87 21.73 13.25Q21.31 13.87 20.73 14.21Q20 14.64 19.01 14.64Q18.03 14.64 17.3 14.21Q16.69 13.86 16.25 13.2Q15.29 11.76 15.29 9.15L15.29 8.32Q15.3 5.66 16.26 4.28Q16.68 3.67 17.26 3.33Q18 2.9 18.99 2.9Q19.99 2.9 20.72 3.34Q21.31 3.68 21.73 4.3ZM54.65 4.3Q55.61 5.69 55.61 8.37L55.61 9.21Q55.6 11.87 54.65 13.25Q54.23 13.87 53.65 14.21Q52.92 14.64 51.93 14.64Q50.95 14.64 50.21 14.21Q49.6 13.86 49.17 13.2Q48.21 11.76 48.21 9.15L48.21 8.32Q48.22 5.66 49.18 4.28Q49.6 3.67 50.18 3.33Q50.92 2.9 51.91 2.9Q52.9 2.9 53.64 3.34Q54.23 3.68 54.65 4.3Z" fill="#9B9B9B" fill-opacity="1.000000" fill-rule="evenodd"/>
</svg>
