<svg width="88.769531" height="26.296875" viewBox="0 0 88.7695 26.2969" fill="none" xmlns="http://www.w3.org/2000/svg" xmlns:xlink="http://www.w3.org/1999/xlink">
	<desc>
			Created with Pixso.
	</desc>
	<defs/>
	<path id="LOGO" d="M38.05 20.35Q39.39 17.5 39.39 13.72L39.39 12.58Q39.39 8.82 38.03 5.95Q37 3.77 35.32 2.36Q34.78 1.91 34.18 1.53Q33.66 1.21 33.11 0.96Q31.03 0 28.49 0Q25.95 0 23.86 0.96Q23.32 1.21 22.8 1.53Q22.2 1.91 21.66 2.36Q19.98 3.77 18.95 5.95Q17.59 8.82 17.59 12.6L17.59 13.86Q17.61 17.56 18.98 20.39Q19.98 22.47 21.58 23.84Q22.17 24.35 22.85 24.76Q23.4 25.1 24 25.37Q26.05 26.29 28.52 26.29Q31.11 26.29 33.22 25.3Q33.74 25.05 34.23 24.75Q34.93 24.31 35.54 23.77Q37.09 22.39 38.05 20.35ZM59.44 25.35Q62.05 24.41 63.47 22.71L63.47 12.49L53.4 12.49L53.4 16.38L58.2 16.38L58.2 20.79Q56.93 22.06 53.96 22.06Q51.98 22.06 50.63 21.13Q49.98 20.67 49.48 20Q47.95 17.94 47.95 13.92L47.95 12.28Q47.97 8.29 49.37 6.27Q49.93 5.47 50.69 4.98Q51.85 4.25 53.47 4.25Q55.58 4.25 56.78 5.27Q57.99 6.29 58.34 8.49L63.47 8.49Q63.06 4.88 61.06 2.76Q60.76 2.45 60.43 2.17Q57.86 0 53.31 0Q50.24 0 47.9 1.31Q47.75 1.39 47.61 1.48Q46.95 1.88 46.37 2.38Q44.82 3.72 43.88 5.77Q42.59 8.57 42.59 12.41L42.59 14.15Q42.62 17.87 43.98 20.63Q44.91 22.51 46.37 23.78Q47.05 24.38 47.85 24.84Q47.9 24.87 47.95 24.9Q50.42 26.29 53.68 26.29Q56.84 26.29 59.44 25.35ZM87.43 20.35Q88.76 17.5 88.76 13.72L88.76 12.58Q88.76 8.82 87.4 5.95Q86.37 3.77 84.7 2.36Q84.16 1.91 83.55 1.53Q83.04 1.21 82.49 0.96Q80.4 0 77.87 0Q75.33 0 73.24 0.96Q72.69 1.21 72.18 1.53Q71.57 1.91 71.03 2.36Q69.36 3.77 68.33 5.95Q66.97 8.82 66.97 12.6L66.97 13.86Q66.99 17.56 68.36 20.39Q69.36 22.47 70.96 23.84Q71.55 24.35 72.22 24.76Q72.78 25.1 73.37 25.37Q75.43 26.29 77.9 26.29Q80.48 26.29 82.59 25.3Q83.11 25.05 83.61 24.75Q84.31 24.31 84.92 23.77Q86.47 22.39 87.43 20.35ZM16.47 21.7L5.27 21.7L5.27 0.35L0 0.35L0 25.94L16.47 25.94L16.47 21.7ZM32.6 6.45Q34.04 8.54 34.04 12.56L34.04 13.81Q34.03 17.8 32.6 19.88Q31.97 20.81 31.1 21.32Q30.01 21.97 28.52 21.97Q27.05 21.97 25.95 21.32Q25.03 20.79 24.38 19.81Q22.93 17.64 22.93 13.72L22.93 12.48Q22.95 8.49 24.39 6.42Q25.03 5.51 25.89 5Q27 4.35 28.49 4.35Q29.98 4.35 31.09 5.01Q31.97 5.52 32.6 6.45ZM81.98 6.45Q83.42 8.54 83.42 12.56L83.42 13.81Q83.4 17.8 81.98 19.88Q81.35 20.81 80.48 21.32Q79.38 21.97 77.9 21.97Q76.42 21.97 75.32 21.32Q74.41 20.79 73.75 19.81Q72.31 17.64 72.31 13.72L72.31 12.48Q72.33 8.49 73.77 6.42Q74.4 5.51 75.27 5Q76.38 4.35 77.87 4.35Q79.36 4.35 80.47 5.01Q81.34 5.52 81.98 6.45Z" fill="#F95A2C" fill-opacity="1.000000" fill-rule="evenodd"/>
</svg>
